<svg xmlns="http://www.w3.org/2000/svg" xmlns:xlink="http://www.w3.org/1999/xlink" viewBox="0 0 360.66 75.5"><defs><style>.cls-1{fill:url(#linear-gradient);}.cls-2{fill:#fff;}</style><linearGradient id="linear-gradient" y1="37.75" x2="75.5" y2="37.75" gradientUnits="userSpaceOnUse"><stop offset="0" stop-color="#ec0e7c"/><stop offset="1" stop-color="#ef4d37"/></linearGradient></defs><title>SLUAsset 3</title><g id="Layer_2" data-name="Layer 2"><g id="Layer_1-2" data-name="Layer 1"><circle class="cls-1" cx="37.75" cy="37.75" r="37.75"/><circle class="cls-2" cx="37.75" cy="37.75" r="25.03"/><path class="cls-2" d="M97.9,44.78a11.55,11.55,0,0,0,5.85,1.65c3.34,0,5.29-1.76,5.29-4.31,0-2.36-1.35-3.71-4.76-5-4.13-1.46-6.68-3.6-6.68-7.16,0-3.94,3.26-6.86,8.18-6.86a11.6,11.6,0,0,1,5.59,1.23l-.9,2.67a10.11,10.11,0,0,0-4.8-1.2c-3.46,0-4.77,2.06-4.77,3.79,0,2.36,1.54,3.52,5,4.87,4.27,1.65,6.45,3.71,6.45,7.43,0,3.9-2.89,7.27-8.85,7.27a13.06,13.06,0,0,1-6.45-1.61Z"/><path class="cls-2" d="M121.72,23.48H125V46h10.8v2.74H121.72Z"/><path class="cls-2" d="M146.21,23.48v15c0,5.67,2.51,8.07,5.89,8.07,3.75,0,6.15-2.48,6.15-8.07v-15h3.3V38.22c0,7.76-4.09,11-9.57,11-5.17,0-9.07-3-9.07-10.8V23.48Z"/><path class="cls-2" d="M172.09,23.82a33.7,33.7,0,0,1,6.26-.53c3.49,0,5.74.64,7.31,2.06a6.29,6.29,0,0,1,2,4.81,6.64,6.64,0,0,1-4.76,6.45v.11c2,.67,3.11,2.47,3.71,5.1a41.26,41.26,0,0,0,2,6.94h-3.37a31.83,31.83,0,0,1-1.69-6c-.75-3.49-2.1-4.8-5.06-4.91h-3.08V48.76h-3.26Zm3.26,11.51h3.34c3.49,0,5.7-1.91,5.7-4.8,0-3.26-2.36-4.69-5.81-4.73a13.47,13.47,0,0,0-3.23.3Z"/><path class="cls-2" d="M201.42,40.81l-2.63,7.95h-3.38L204,23.48h3.94l8.63,25.28h-3.49l-2.7-7.95Zm8.28-2.55L207.23,31c-.56-1.65-.94-3.15-1.31-4.61h-.08c-.37,1.5-.79,3-1.27,4.57l-2.48,7.32Z"/><path class="cls-2" d="M225.16,23.48h3.26V46h10.8v2.74H225.16Z"/><path class="cls-2" d="M247.73,23.78a38.15,38.15,0,0,1,6.27-.49c3.22,0,5.59.75,7.09,2.1a6.82,6.82,0,0,1,2.21,5.29,7.45,7.45,0,0,1-1.95,5.4c-1.73,1.84-4.54,2.78-7.73,2.78a11.06,11.06,0,0,1-2.62-.23V48.76h-3.27ZM251,36a10.81,10.81,0,0,0,2.7.26c3.94,0,6.34-1.91,6.34-5.4,0-3.34-2.37-4.95-6-4.95a13.69,13.69,0,0,0-3.07.26Z"/><path class="cls-2" d="M275.83,23.48V48.76h-3.27V23.48Z"/><path class="cls-2" d="M305.64,47.63A23.39,23.39,0,0,1,297.88,49c-3.83,0-7-1-9.45-3.34a13,13,0,0,1-3.53-9.41c0-7.54,5.22-13.05,13.69-13.05a15.54,15.54,0,0,1,6.3,1.16L304.11,27A13.14,13.14,0,0,0,298.52,26c-6.15,0-10.17,3.83-10.17,10.17s3.87,10.2,9.75,10.2a10.8,10.8,0,0,0,4.36-.67V38.11h-5.14V35.48h8.32Z"/><path class="cls-2" d="M318.77,23.48V34.06H331V23.48h3.3V48.76H331V36.91H318.77V48.76h-3.26V23.48Z"/><path class="cls-2" d="M349.64,26.25H342V23.48h18.71v2.77h-7.72V48.76h-3.3Z"/></g></g></svg>